<svg width="160" height="45" viewBox="0 0 160 45" fill="none" xmlns="http://www.w3.org/2000/svg">
<path fill-rule="evenodd" clip-rule="evenodd" d="M82.0419 38.0676V38.3372H77.628V38.0676H81.8126C81.8143 37.7592 81.7789 37.4521 81.7076 37.1554C81.6653 36.9825 81.6093 36.8146 81.5404 36.654C81.4288 36.3894 81.2821 36.1474 81.1059 35.937C81.0147 35.8293 80.9155 35.7316 80.8094 35.6449C80.5119 35.3979 80.1561 35.2668 79.792 35.2699C79.4146 35.2699 79.073 35.4019 78.7673 35.666C78.5339 35.8698 78.3361 36.1246 78.1847 36.4164C78.1289 36.5224 78.0782 36.632 78.0328 36.7446C77.9007 37.0757 77.8134 37.4291 77.7741 37.7919C77.7557 37.956 77.7452 38.1212 77.7427 38.2867V38.3204C77.7411 38.6712 77.7767 39.0208 77.8488 39.3612C77.8867 39.5372 77.9357 39.7097 77.9952 39.8772C78.0926 40.1568 78.2276 40.4161 78.395 40.6452C78.4957 40.7815 78.6085 40.9047 78.7315 41.0128C78.9787 41.2281 79.2687 41.3654 79.5738 41.4117C79.6841 41.4297 79.7953 41.4386 79.9066 41.4383C80.2458 41.4383 80.5306 41.3681 80.7611 41.2276C80.9916 41.0872 81.1767 40.9256 81.3164 40.7431C81.3575 40.6896 81.3976 40.6351 81.4368 40.5797C81.5146 40.4694 81.5763 40.3708 81.6218 40.284C81.6233 40.2812 81.6249 40.2783 81.6264 40.2754L81.8126 40.4271C81.7794 40.493 81.7432 40.5568 81.7042 40.618C81.6627 40.6836 81.6157 40.7517 81.5631 40.8222C81.5254 40.8727 81.4867 40.9222 81.4472 40.9707C81.3512 41.0874 81.2449 41.1917 81.1301 41.2819C81.0321 41.3591 80.9298 41.4282 80.8238 41.4889C80.5859 41.6261 80.3017 41.6988 79.9711 41.7071C79.9496 41.7077 79.9281 41.7079 79.9066 41.7079C79.6645 41.7102 79.4236 41.6681 79.1926 41.5831C78.9983 41.5101 78.8144 41.403 78.6473 41.2655C78.3233 40.9977 78.0595 40.6412 77.8787 40.2268C77.8548 40.1735 77.8321 40.1195 77.8107 40.0648C77.6124 39.5592 77.5133 38.9889 77.5133 38.3541C77.5118 38.0234 77.5419 37.6935 77.6028 37.3706C77.6507 37.1202 77.721 36.8764 77.8125 36.6434C77.9178 36.3718 78.0541 36.1184 78.2177 35.8902C78.3389 35.7226 78.4765 35.5724 78.6276 35.4427C78.9645 35.1504 79.3733 34.9951 79.792 35.0002C80.1007 34.9971 80.4056 35.0794 80.6823 35.2404C80.9572 35.4018 81.2005 35.6285 81.397 35.9061C81.5967 36.1871 81.7535 36.5065 81.8606 36.8502C81.8644 36.862 81.8681 36.8738 81.8717 36.8857C81.9852 37.2551 82.0419 37.649 82.0419 38.0676ZM66.9907 35.1013V41.3035L70.4015 35.1013H70.7455V41.5732H70.5161V35.371L67.1053 41.5732H66.7614V35.1013H66.9907ZM149.756 35.1013V41.3035L153.167 35.1013H153.511V41.5732H153.282V35.371L149.871 41.5732H149.527V35.1013H149.756ZM83.1312 41.5732H83.0164V41.3035H83.1312C83.3891 41.3035 83.5891 41.2522 83.7313 41.1497C83.8287 41.0784 83.9092 40.9791 83.9651 40.8613C83.996 40.7976 84.0214 40.7305 84.0412 40.661C84.0661 40.5732 84.0868 40.4838 84.103 40.3932C84.1353 40.2181 84.1594 40.0145 84.1755 39.7824C84.1856 39.6353 84.1949 39.4882 84.2034 39.341C84.2112 39.209 84.2188 39.0692 84.2264 38.9216C84.2344 38.7661 84.2419 38.6107 84.2489 38.4552L84.4066 35.1013H87.5595V41.5732H87.3301V35.371H84.6215L84.4783 38.472C84.4697 38.6569 84.4605 38.8418 84.4506 39.0266C84.4427 39.1731 84.4347 39.3134 84.4264 39.4474C84.4186 39.5753 84.4102 39.7031 84.4012 39.8309C84.3737 40.2199 84.3212 40.5429 84.2436 40.7999C84.166 41.057 84.0406 41.2501 83.8674 41.3793C83.6942 41.5085 83.4488 41.5732 83.1312 41.5732ZM132.595 41.5732H132.366V35.1013H136.206V41.5732H135.977V35.371H132.595V41.5732ZM89.6661 38.1856V37.9159H91.3429C91.5211 37.9147 91.699 37.9311 91.8749 37.9649C92.0671 38.0032 92.2405 38.064 92.3952 38.1473C92.4982 38.2023 92.5958 38.2703 92.6863 38.3499C92.891 38.5331 93.0384 38.7909 93.1053 39.083C93.1443 39.2393 93.1674 39.4123 93.1747 39.602C93.1764 39.6467 93.1773 39.6914 93.1773 39.7361C93.178 39.8831 93.1679 40.0299 93.1473 40.1749C93.1231 40.3394 93.0842 40.4885 93.0307 40.6221C93.0085 40.6776 92.9833 40.7314 92.9551 40.7831C92.8195 41.0301 92.6253 41.225 92.3965 41.3436C92.3716 41.357 92.3464 41.3696 92.3209 41.3814C92.1755 41.4479 92.0245 41.4961 91.8704 41.5252C91.7279 41.5531 91.5756 41.5688 91.4135 41.5723C91.39 41.5729 91.3664 41.5731 91.3429 41.5732H89.5371V35.1013H89.7665V41.3035H91.3429C91.4958 41.3044 91.6485 41.2914 91.7997 41.2647C91.9619 41.2349 92.1088 41.188 92.2404 41.1238C92.3391 41.0764 92.4328 41.0158 92.5198 40.9432C92.7713 40.7316 92.912 40.3939 92.9419 39.9302C92.946 39.8656 92.948 39.8009 92.948 39.7361C92.9489 39.5882 92.9369 39.4405 92.9121 39.2955C92.8535 38.9664 92.7227 38.7165 92.5198 38.5458C92.2929 38.3549 91.9985 38.2398 91.6365 38.2007C91.5389 38.1904 91.4409 38.1854 91.3429 38.1856H89.6661ZM109.68 41.5732H109.45V35.3626L107.831 35.371C107.305 35.3739 106.926 35.482 106.691 35.6954C106.571 35.8078 106.48 35.9579 106.428 36.1284C106.37 36.3103 106.34 36.5297 106.34 36.7867C106.34 36.9193 106.349 37.0518 106.368 37.1824C106.39 37.323 106.424 37.4476 106.471 37.5563C106.525 37.6828 106.602 37.7935 106.697 37.8801C106.79 37.9622 106.895 38.0261 107.006 38.0693C107.223 38.1581 107.498 38.2025 107.831 38.2025H109.565V38.472H107.831C107.703 38.4725 107.575 38.4655 107.447 38.4509C107.319 38.4358 107.201 38.4125 107.092 38.381C107.012 38.3582 106.933 38.3288 106.856 38.293C106.744 38.2412 106.638 38.1703 106.544 38.0825C106.443 37.9882 106.358 37.8724 106.294 37.741C106.19 37.5296 106.131 37.2679 106.115 36.9558C106.112 36.8995 106.111 36.8431 106.111 36.7867C106.111 36.6551 106.118 36.5236 106.134 36.3933C106.152 36.2523 106.181 36.1235 106.22 36.007C106.24 35.9454 106.264 35.8856 106.292 35.8282C106.391 35.6251 106.539 35.4602 106.716 35.3532C106.761 35.3252 106.807 35.3002 106.854 35.2784C106.964 35.2286 107.077 35.1908 107.192 35.1654C107.379 35.1227 107.592 35.1013 107.831 35.1013H109.68V41.5732ZM159 41.5732H158.771V35.3626L157.151 35.371C156.626 35.3739 156.246 35.482 156.012 35.6954C155.891 35.8078 155.8 35.9579 155.749 36.1284C155.69 36.3103 155.661 36.5297 155.661 36.7867C155.66 36.9193 155.669 37.0518 155.689 37.1824C155.71 37.323 155.745 37.4476 155.792 37.5563C155.845 37.6828 155.922 37.7935 156.017 37.8801C156.111 37.9622 156.215 38.0261 156.326 38.0693C156.543 38.1581 156.818 38.2025 157.151 38.2025H158.885V38.472H157.151C157.023 38.4725 156.895 38.4655 156.768 38.4509C156.64 38.4358 156.521 38.4125 156.413 38.381C156.332 38.3582 156.254 38.3288 156.177 38.293C156.064 38.2412 155.959 38.1703 155.864 38.0825C155.763 37.9882 155.679 37.8724 155.614 37.741C155.511 37.5296 155.451 37.2679 155.436 36.9558C155.433 36.8995 155.432 36.8431 155.432 36.7867C155.431 36.6551 155.439 36.5236 155.455 36.3933C155.473 36.2523 155.501 36.1235 155.54 36.007C155.561 35.9454 155.585 35.8856 155.612 35.8282C155.712 35.6251 155.859 35.4601 156.036 35.3532C156.081 35.3252 156.128 35.3002 156.175 35.2784C156.285 35.2286 156.398 35.1908 156.513 35.1654C156.7 35.1227 156.913 35.1013 157.151 35.1013H159V41.5732ZM114.724 41.5732H114.495V35.1013H114.724V38.2025H115.398L117.576 35.1013H117.877L115.699 38.2025L117.963 41.5732H117.669L115.591 38.472H114.724V41.5732ZM48.2707 36.9889H48.027C47.953 36.4805 47.7565 36.0669 47.4377 35.7481C47.1188 35.4293 46.742 35.2699 46.3073 35.2699C45.9132 35.2699 45.5591 35.404 45.2451 35.6723C44.9971 35.8863 44.7895 36.1582 44.6352 36.4711C44.5862 36.5686 44.5416 36.6691 44.5016 36.772C44.3768 37.096 44.2949 37.4405 44.2586 37.7936C44.2388 37.9795 44.229 38.1667 44.2293 38.3541C44.2279 38.6705 44.2574 38.986 44.3174 39.2944C44.3592 39.5066 44.4178 39.7137 44.4926 39.913C44.6682 40.3793 44.9124 40.7501 45.2253 41.0254C45.5382 41.3006 45.8989 41.4383 46.3073 41.4383C46.5144 41.4399 46.7201 41.4004 46.9159 41.3213C46.9847 41.293 47.0518 41.2597 47.117 41.2214C47.3611 41.0787 47.572 40.8683 47.7315 40.6083C47.8752 40.3743 47.974 40.1064 48.0211 39.8231C48.029 39.7775 48.0357 39.7316 48.0413 39.6856H48.285C48.2325 40.0929 48.113 40.4482 47.9267 40.7515C47.7457 41.0496 47.5059 41.2917 47.2281 41.4572C46.9615 41.6153 46.6681 41.7006 46.3697 41.707C46.3489 41.7076 46.3281 41.708 46.3073 41.7079C45.8815 41.7148 45.4651 41.5604 45.1196 41.2676C44.8349 41.0248 44.5979 40.7129 44.4245 40.3531C44.3791 40.2606 44.3373 40.1658 44.2992 40.0689C44.0998 39.5633 44.0001 38.9917 44.0001 38.3541C43.9985 38.0153 44.03 37.6774 44.0941 37.3471C44.1416 37.1058 44.2097 36.8707 44.2974 36.6455C44.4021 36.373 44.5385 36.119 44.7028 35.8907C44.8249 35.7225 44.9636 35.5721 45.116 35.4427C45.4622 35.1482 45.8801 34.993 46.3073 35.0002C46.5496 34.9981 46.7901 35.048 47.0172 35.1472C47.085 35.1773 47.1512 35.2119 47.2156 35.2509C47.4901 35.4168 47.7276 35.6564 47.9088 35.9504C48.0797 36.227 48.1973 36.5441 48.2535 36.8796C48.2599 36.9159 48.2656 36.9524 48.2707 36.9889ZM55.2822 44H55.0529V35.1013H55.2822V36.753H55.3109C55.4111 36.3935 55.5509 36.0831 55.7301 35.8219C55.9092 35.5606 56.1211 35.3584 56.366 35.2151C56.5922 35.084 56.8398 35.0114 57.0919 35.0021C57.1192 35.0009 57.1466 35.0002 57.1739 35.0002C57.3926 34.9978 57.6101 35.0399 57.8167 35.1245C57.9916 35.198 58.1551 35.3048 58.3007 35.4405C58.6171 35.7341 58.8619 36.1337 59.0351 36.6393C59.2083 37.1449 59.2949 37.7165 59.2949 38.3541C59.2962 38.6751 59.2715 38.9956 59.2211 39.3111C59.1796 39.5689 59.1167 39.8214 59.0333 40.0648C58.9518 40.3053 58.846 40.5334 58.718 40.7442C58.5984 40.9402 58.4561 41.1156 58.2953 41.2655C57.99 41.5489 57.613 41.7044 57.224 41.7072C57.2073 41.7077 57.1906 41.7079 57.1739 41.7079C56.9552 41.7098 56.738 41.6658 56.5324 41.5781C56.4764 41.5538 56.4214 41.5262 56.3678 41.4952C56.1188 41.3506 55.8999 41.1435 55.7264 40.8884C55.587 40.6849 55.4738 40.4582 55.3906 40.2158C55.3608 40.1303 55.3342 40.0433 55.3109 39.9551H55.2822V44ZM103.933 37.3091V36.9215C103.934 36.7325 103.911 36.5443 103.862 36.364C103.794 36.1168 103.671 35.8955 103.506 35.7228C103.318 35.5259 103.09 35.39 102.844 35.3284C102.689 35.2882 102.53 35.2686 102.371 35.2699C101.984 35.2699 101.646 35.3703 101.357 35.5712C101.076 35.7599 100.862 36.0591 100.751 36.416L100.536 36.3149C100.62 36.0483 100.757 35.8088 100.934 35.6154C101.1 35.4344 101.293 35.2907 101.503 35.1915C101.526 35.1806 101.549 35.1702 101.572 35.1603C101.777 35.0722 101.993 35.0201 102.212 35.0058C102.265 35.0021 102.318 35.0002 102.371 35.0002C102.504 34.9996 102.637 35.0118 102.768 35.0365C102.888 35.0594 103.007 35.0959 103.121 35.1456C103.254 35.2028 103.38 35.2788 103.497 35.3717C103.564 35.4252 103.627 35.4848 103.685 35.5501C103.841 35.7228 103.959 35.9258 104.04 36.159C104.121 36.3921 104.162 36.6463 104.162 36.9215V41.5732H103.933V40.2585H103.904C103.794 40.5421 103.643 40.8009 103.458 41.0233C103.275 41.241 103.065 41.4095 102.827 41.5289C102.59 41.6483 102.332 41.7079 102.055 41.7079C101.829 41.7098 101.605 41.6645 101.393 41.5742C101.335 41.5492 101.278 41.5208 101.222 41.4889C100.971 41.3465 100.759 41.1247 100.61 40.8484C100.511 40.6664 100.444 40.4636 100.411 40.2514C100.389 40.1093 100.378 39.9649 100.379 39.8204C100.378 39.6487 100.398 39.4778 100.438 39.3128C100.447 39.2758 100.457 39.2393 100.468 39.2031C100.511 39.0669 100.575 38.9409 100.656 38.8312C100.695 38.7769 100.738 38.7259 100.783 38.6785C100.9 38.5563 101.054 38.4476 101.244 38.3524C101.3 38.3241 101.358 38.298 101.416 38.274C101.613 38.1924 101.85 38.1248 102.127 38.0714C102.236 38.0504 102.346 38.0322 102.457 38.017C102.71 37.9833 102.949 37.944 103.173 37.8991C103.252 37.8836 103.33 37.8637 103.407 37.8394C103.528 37.8007 103.633 37.7532 103.721 37.6968C103.862 37.6069 103.933 37.4777 103.933 37.3091ZM141.437 37.3091V36.9215C141.439 36.7325 141.415 36.5443 141.367 36.364C141.299 36.1168 141.176 35.8955 141.011 35.7228C140.823 35.5259 140.595 35.39 140.348 35.3284C140.193 35.2882 140.034 35.2686 139.875 35.2699C139.488 35.2699 139.15 35.3703 138.861 35.5712C138.581 35.7599 138.366 36.0591 138.256 36.416L138.041 36.3149C138.125 36.0483 138.261 35.8088 138.439 35.6154C138.605 35.4344 138.798 35.2907 139.008 35.1915C139.031 35.1806 139.053 35.1702 139.076 35.1603C139.282 35.0722 139.498 35.0201 139.716 35.0058C139.769 35.0021 139.822 35.0002 139.875 35.0002C140.008 34.9996 140.141 35.0118 140.272 35.0365C140.393 35.0594 140.511 35.0959 140.626 35.1456C140.758 35.2028 140.885 35.2788 141.002 35.3717C141.068 35.4252 141.131 35.4848 141.19 35.5501C141.345 35.7228 141.464 35.9258 141.545 36.159C141.626 36.3921 141.667 36.6463 141.667 36.9215V41.5732H141.437V40.2585H141.409C141.299 40.5421 141.148 40.8009 140.963 41.0233C140.78 41.241 140.57 41.4095 140.332 41.5289C140.094 41.6483 139.837 41.7079 139.56 41.7079C139.334 41.7098 139.11 41.6645 138.897 41.5742C138.839 41.5492 138.782 41.5208 138.727 41.4889C138.476 41.3465 138.264 41.1247 138.114 40.8484C138.016 40.6664 137.949 40.4636 137.916 40.2514C137.894 40.1093 137.883 39.9649 137.883 39.8204C137.882 39.6487 137.902 39.4778 137.942 39.3128C137.951 39.2758 137.961 39.2393 137.973 39.2031C138.016 39.0669 138.079 38.9409 138.16 38.8312C138.2 38.7769 138.242 38.7259 138.288 38.6785C138.405 38.5563 138.558 38.4476 138.748 38.3524C138.805 38.3241 138.862 38.298 138.92 38.274C139.117 38.1924 139.354 38.1248 139.631 38.0714C139.741 38.0504 139.851 38.0322 139.961 38.017C140.214 37.9833 140.453 37.944 140.678 37.8991C140.756 37.8836 140.834 37.8637 140.912 37.8394C141.033 37.8007 141.138 37.7532 141.226 37.6968C141.367 37.6069 141.437 37.4777 141.437 37.3091ZM125.379 35.1013L127.744 41.1181L130.109 35.1013H130.359L127.815 41.5732H127.672L125.128 35.1013H125.379ZM51.4092 35.371H49.5318V35.1013H53.4872V35.371H51.6385V41.5732H51.4092V35.371ZM74.1993 35.371H72.3219V35.1013H76.2772V35.371H74.4286V41.5732H74.1993V35.371ZM61.699 41.2676C62.0364 41.5587 62.4449 41.7132 62.8634 41.7079C63.2818 41.7132 63.6903 41.5587 64.0277 41.2676C64.1844 41.1337 64.3265 40.9776 64.4508 40.8029C64.6086 40.579 64.7405 40.3315 64.8428 40.0668C64.9327 39.8374 65.0021 39.5977 65.05 39.3515C65.1127 39.0242 65.1435 38.6896 65.142 38.3541C65.1422 38.1756 65.1338 37.9972 65.1169 37.8198C65.0798 37.4127 64.9866 37.0154 64.841 36.6434C64.7978 36.5343 64.7501 36.4277 64.6979 36.3241C64.5272 35.9796 64.2985 35.6797 64.0259 35.4427C63.6897 35.1502 63.2815 34.9949 62.8634 35.0002C62.4449 34.995 62.0364 35.1495 61.699 35.4405C61.5451 35.5721 61.4052 35.7249 61.2824 35.8958C61.1217 36.1214 60.9877 36.3715 60.8839 36.6393C60.7891 36.8808 60.7171 37.1338 60.6692 37.3937C60.6116 37.7093 60.5833 38.0313 60.5847 38.3541C60.5845 38.5327 60.5928 38.7111 60.6096 38.8886C60.6466 39.2961 60.7392 39.694 60.8839 40.0668C60.9268 40.1762 60.9744 40.2831 61.0264 40.3869C61.1965 40.7319 61.4255 41.0318 61.699 41.2676ZM120.066 41.2676C120.403 41.5587 120.812 41.7132 121.23 41.7079C121.649 41.7132 122.057 41.5587 122.395 41.2676C122.552 41.1337 122.694 40.9776 122.818 40.8029C122.976 40.579 123.108 40.3315 123.21 40.0668C123.3 39.8374 123.369 39.5977 123.417 39.3515C123.48 39.0242 123.511 38.6896 123.509 38.3541C123.509 38.1756 123.501 37.9972 123.484 37.8198C123.447 37.4127 123.354 37.0154 123.208 36.6434C123.165 36.5343 123.117 36.4277 123.065 36.3241C122.894 35.9796 122.666 35.6797 122.393 35.4427C122.057 35.1502 121.649 34.9949 121.23 35.0002C120.812 34.995 120.403 35.1495 120.066 35.4405C119.912 35.5721 119.772 35.7249 119.649 35.8958C119.489 36.1214 119.355 36.3715 119.251 36.6393C119.156 36.8808 119.084 37.1338 119.036 37.3937C118.979 37.7093 118.95 38.0313 118.952 38.3541C118.951 38.5327 118.96 38.7111 118.977 38.8886C119.014 39.2961 119.106 39.694 119.251 40.0668C119.294 40.1762 119.341 40.2831 119.394 40.3869C119.564 40.7319 119.793 41.0318 120.066 41.2676ZM62.8634 41.4383C63.241 41.4428 63.6094 41.3006 63.9113 41.0338C64.1483 40.8249 64.3475 40.5624 64.4971 40.2618C64.5514 40.1546 64.6004 40.0437 64.644 39.9299C64.7698 39.5981 64.8515 39.2455 64.8864 38.8846C64.9042 38.7085 64.9129 38.5314 64.9127 38.3541C64.9139 38.0582 64.8884 37.763 64.8364 37.4735C64.793 37.2349 64.7279 37.0026 64.6422 36.7804C64.5523 36.5449 64.4375 36.3235 64.3006 36.1216C64.1866 35.9546 64.0552 35.8051 63.9095 35.6765C63.6014 35.4055 63.2527 35.2699 62.8634 35.2699C62.4764 35.2699 62.1283 35.4055 61.8189 35.6765C61.5819 35.8864 61.3824 36.1492 61.2318 36.4499C61.1775 36.5567 61.1283 36.6671 61.0844 36.7804C60.9578 37.1114 60.8755 37.4633 60.8404 37.8238C60.8225 37.9998 60.8137 38.1769 60.814 38.3541C60.8126 38.6585 60.8396 38.9622 60.8944 39.2597C60.9373 39.4902 61.0005 39.7147 61.0827 39.9299C61.1719 40.166 61.2864 40.3878 61.4233 40.5898C61.5374 40.7568 61.6692 40.906 61.8154 41.0338C62.1173 41.3006 62.4857 41.4428 62.8634 41.4383ZM121.23 41.4383C121.608 41.4428 121.976 41.3006 122.278 41.0338C122.515 40.8249 122.715 40.5624 122.864 40.2618C122.918 40.1546 122.968 40.0437 123.011 39.9299C123.137 39.5981 123.219 39.2455 123.254 38.8846C123.271 38.7085 123.28 38.5314 123.28 38.3541C123.281 38.0582 123.255 37.763 123.203 37.4735C123.16 37.2349 123.095 37.0026 123.009 36.7804C122.919 36.5449 122.805 36.3235 122.668 36.1216C122.554 35.9546 122.422 35.8051 122.277 35.6765C121.968 35.4055 121.62 35.2699 121.23 35.2699C120.843 35.2699 120.495 35.4055 120.186 35.6765C119.949 35.8864 119.749 36.1492 119.599 36.4499C119.545 36.5567 119.495 36.6671 119.452 36.7804C119.325 37.1114 119.243 37.4633 119.207 37.8238C119.19 37.9998 119.181 38.1769 119.181 38.3541C119.18 38.6585 119.207 38.9622 119.261 39.2597C119.304 39.4902 119.367 39.7147 119.45 39.9299C119.539 40.166 119.653 40.3878 119.79 40.5898C119.904 40.7568 120.036 40.906 120.182 41.0338C120.484 41.3006 120.853 41.4428 121.23 41.4383ZM55.2822 38.3541C55.2811 38.6452 55.3023 38.9358 55.3455 39.2225C55.382 39.4634 55.4382 39.6996 55.5132 39.9279C55.5829 40.1418 55.6732 40.3455 55.7825 40.5351C55.8904 40.7216 56.0205 40.8889 56.1689 41.0318C56.4426 41.2941 56.7847 41.4376 57.1378 41.4379C57.1498 41.4381 57.1619 41.4383 57.1739 41.4383C57.3795 41.4407 57.5837 41.3974 57.7756 41.3106C57.9215 41.2428 58.0576 41.1487 58.1789 41.0318C58.3763 40.8404 58.5417 40.6073 58.6666 40.3447C58.7311 40.2107 58.7873 40.0714 58.8345 39.9279C58.9334 39.6248 59.0002 39.3085 59.0331 38.9863C59.0552 38.7765 59.066 38.5654 59.0656 38.3541C59.0667 38.063 59.0456 37.7724 59.0028 37.4857C58.9665 37.2449 58.9107 37.0088 58.8363 36.7804C58.7672 36.5665 58.6773 36.3627 58.5683 36.1731C58.4607 35.9866 58.3307 35.8193 58.1824 35.6765C57.9138 35.4193 57.5792 35.2763 57.2328 35.271C57.2132 35.2703 57.1935 35.2699 57.1739 35.2699C56.9729 35.2676 56.7733 35.3085 56.5848 35.3906C56.4328 35.4586 56.2911 35.5552 56.1653 35.6765C55.9659 35.8699 55.7994 36.1058 55.6745 36.3718C55.6119 36.5032 55.5574 36.6398 55.5115 36.7804C55.4133 37.0836 55.3471 37.3999 55.3144 37.722C55.2925 37.9317 55.2818 38.1428 55.2822 38.3541ZM94.7967 35.1013H95.0259V41.5732H94.7967V35.1013ZM98.4725 35.1013H98.7019V41.5732H98.4725V35.1013ZM125.128 35.1013H125.358V41.5732H125.128V35.1013ZM143.644 35.1013H143.874V41.5732H143.644V35.1013ZM147.32 35.1013H147.549V41.5732H147.32V35.1013ZM130.359 35.1013H130.13V41.5732H130.359V35.1013ZM103.933 38.8091V37.8317C103.895 37.8645 103.856 37.8939 103.815 37.9197C103.774 37.945 103.733 37.9676 103.691 37.9876C103.641 38.011 103.591 38.0323 103.54 38.0513C103.485 38.0721 103.429 38.0909 103.372 38.1077C103.295 38.1303 103.218 38.1502 103.14 38.1673C103.089 38.1786 103.038 38.1889 102.987 38.1982C102.915 38.2112 102.844 38.2235 102.772 38.2351C102.696 38.2474 102.619 38.259 102.543 38.2699C102.398 38.2892 102.255 38.3137 102.112 38.3433C101.829 38.4027 101.592 38.4776 101.402 38.5679C101.395 38.571 101.388 38.5742 101.382 38.5774C101.295 38.6191 101.211 38.6682 101.131 38.7243C101.046 38.7842 100.973 38.8489 100.911 38.9185C100.863 38.9718 100.82 39.0312 100.783 39.0956C100.686 39.2709 100.627 39.4724 100.613 39.6814C100.61 39.7276 100.608 39.774 100.608 39.8204C100.608 40.3091 100.747 40.701 101.025 40.9959C101.273 41.2587 101.59 41.413 101.924 41.433C101.967 41.4366 102.011 41.4383 102.055 41.4383C102.393 41.4422 102.724 41.327 103.005 41.1076C103.244 40.9202 103.444 40.6717 103.591 40.3806C103.623 40.3168 103.654 40.2515 103.682 40.1848C103.789 39.9279 103.862 39.6531 103.897 39.37C103.921 39.1844 103.933 38.9969 103.933 38.8091ZM141.437 38.8091V37.8317C141.4 37.8645 141.36 37.8939 141.319 37.9197C141.279 37.945 141.238 37.9676 141.195 37.9876C141.146 38.011 141.096 38.0323 141.045 38.0513C140.989 38.0721 140.933 38.0909 140.877 38.1077C140.8 38.1303 140.722 38.1502 140.644 38.1673C140.594 38.1786 140.543 38.1889 140.491 38.1982C140.42 38.2112 140.348 38.2235 140.276 38.2351C140.2 38.2474 140.124 38.259 140.047 38.2699C139.903 38.2892 139.759 38.3137 139.617 38.3433C139.333 38.4027 139.097 38.4776 138.906 38.5679C138.899 38.571 138.893 38.5742 138.886 38.5774C138.8 38.6191 138.716 38.6682 138.635 38.7243C138.551 38.7842 138.477 38.8489 138.415 38.9185C138.367 38.9718 138.325 39.0312 138.288 39.0956C138.19 39.2709 138.132 39.4724 138.118 39.6814C138.114 39.7276 138.112 39.774 138.112 39.8204C138.112 40.3091 138.252 40.701 138.53 40.9959C138.778 41.2587 139.095 41.413 139.428 41.433C139.472 41.4366 139.516 41.4383 139.56 41.4383C139.897 41.4422 140.228 41.327 140.509 41.1076C140.749 40.9202 140.949 40.6717 141.095 40.3806C141.128 40.3168 141.158 40.2515 141.186 40.1848C141.294 39.9279 141.366 39.6531 141.402 39.37C141.426 39.1844 141.438 38.9969 141.437 38.8091ZM94.9471 38.2025H98.5801V38.472H94.9471V38.2025ZM143.795 38.2025H147.428V38.472H143.795V38.2025ZM105.932 41.5732H105.667L107.293 38.3541H107.558L105.932 41.5732ZM155.252 41.5732H154.987L156.614 38.3541H156.879L155.252 41.5732Z" fill="white"/>
<path d="M130.359 35.1013H130.109L127.744 41.1181L125.379 35.1013H125.128M130.359 35.1013L127.815 41.5732H127.672L125.128 35.1013M130.359 35.1013H130.13V41.5732H130.359V35.1013ZM125.128 35.1013H125.358V41.5732H125.128V35.1013ZM82.0419 38.0676V38.3372H77.628V38.0676H81.8126C81.8143 37.7592 81.7789 37.4521 81.7076 37.1554C81.6653 36.9825 81.6093 36.8146 81.5404 36.654C81.4288 36.3894 81.2821 36.1474 81.1059 35.937C81.0147 35.8293 80.9155 35.7316 80.8094 35.6449C80.5119 35.3979 80.1561 35.2668 79.792 35.2699C79.4146 35.2699 79.073 35.4019 78.7673 35.666C78.5339 35.8698 78.3361 36.1246 78.1847 36.4164C78.1289 36.5224 78.0782 36.632 78.0328 36.7446C77.9007 37.0757 77.8134 37.4291 77.7741 37.7919C77.7557 37.956 77.7452 38.1212 77.7427 38.2867V38.3204C77.7411 38.6712 77.7767 39.0208 77.8488 39.3612C77.8867 39.5372 77.9357 39.7097 77.9952 39.8772C78.0926 40.1568 78.2276 40.4161 78.395 40.6452C78.4957 40.7815 78.6085 40.9047 78.7315 41.0128C78.9787 41.2281 79.2687 41.3654 79.5738 41.4117C79.6841 41.4297 79.7953 41.4386 79.9066 41.4383C80.2458 41.4383 80.5306 41.3681 80.7611 41.2276C80.9916 41.0872 81.1767 40.9256 81.3164 40.7431C81.3575 40.6896 81.3976 40.6351 81.4368 40.5797C81.5146 40.4694 81.5763 40.3708 81.6218 40.284C81.6233 40.2812 81.6249 40.2783 81.6264 40.2754L81.8126 40.4271C81.7794 40.493 81.7432 40.5568 81.7042 40.618C81.6627 40.6836 81.6157 40.7517 81.5631 40.8222C81.5254 40.8727 81.4867 40.9222 81.4472 40.9707C81.3512 41.0874 81.2449 41.1917 81.1301 41.2819C81.0321 41.3591 80.9298 41.4282 80.8238 41.4889C80.5859 41.6261 80.3017 41.6988 79.9711 41.7071C79.9496 41.7077 79.9281 41.7079 79.9066 41.7079C79.6645 41.7102 79.4236 41.6681 79.1926 41.5831C78.9983 41.5101 78.8144 41.403 78.6473 41.2655C78.3233 40.9977 78.0595 40.6412 77.8787 40.2268C77.8548 40.1735 77.8321 40.1195 77.8107 40.0648C77.6124 39.5592 77.5133 38.9889 77.5133 38.3541C77.5118 38.0234 77.5419 37.6935 77.6028 37.3706C77.6507 37.1202 77.721 36.8764 77.8125 36.6434C77.9178 36.3718 78.0541 36.1184 78.2177 35.8902C78.3389 35.7226 78.4765 35.5724 78.6276 35.4427C78.9645 35.1504 79.3733 34.9951 79.792 35.0002C80.1007 34.9971 80.4056 35.0794 80.6823 35.2404C80.9572 35.4018 81.2005 35.6285 81.397 35.9061C81.5967 36.1871 81.7535 36.5065 81.8606 36.8502C81.8644 36.862 81.8681 36.8738 81.8717 36.8857C81.9852 37.2551 82.0419 37.649 82.0419 38.0676ZM66.9907 35.1013V41.3035L70.4015 35.1013H70.7455V41.5732H70.5161V35.371L67.1053 41.5732H66.7614V35.1013H66.9907ZM149.756 35.1013V41.3035L153.167 35.1013H153.511V41.5732H153.282V35.371L149.871 41.5732H149.527V35.1013H149.756ZM83.1312 41.5732H83.0164V41.3035H83.1312C83.3891 41.3035 83.5891 41.2522 83.7313 41.1497C83.8287 41.0784 83.9092 40.9791 83.9651 40.8613C83.996 40.7976 84.0214 40.7305 84.0412 40.661C84.0661 40.5732 84.0868 40.4838 84.103 40.3932C84.1353 40.2181 84.1594 40.0145 84.1755 39.7824C84.1856 39.6353 84.1949 39.4882 84.2034 39.341C84.2112 39.209 84.2188 39.0692 84.2264 38.9216C84.2344 38.7661 84.2419 38.6107 84.2489 38.4552L84.4066 35.1013H87.5595V41.5732H87.3301V35.371H84.6215L84.4783 38.472C84.4697 38.6569 84.4605 38.8418 84.4506 39.0266C84.4427 39.1731 84.4347 39.3134 84.4264 39.4474C84.4186 39.5753 84.4102 39.7031 84.4012 39.8309C84.3737 40.2199 84.3212 40.5429 84.2436 40.7999C84.166 41.057 84.0406 41.2501 83.8674 41.3793C83.6942 41.5085 83.4488 41.5732 83.1312 41.5732ZM132.595 41.5732H132.366V35.1013H136.206V41.5732H135.977V35.371H132.595V41.5732ZM89.6661 38.1856V37.9159H91.3429C91.5211 37.9147 91.699 37.9311 91.8749 37.9649C92.0671 38.0032 92.2405 38.064 92.3952 38.1473C92.4982 38.2023 92.5958 38.2703 92.6863 38.3499C92.891 38.5331 93.0384 38.7909 93.1053 39.083C93.1443 39.2393 93.1674 39.4123 93.1747 39.602C93.1764 39.6467 93.1773 39.6914 93.1773 39.7361C93.178 39.8831 93.1679 40.0299 93.1473 40.1749C93.1231 40.3394 93.0842 40.4885 93.0307 40.6221C93.0085 40.6776 92.9833 40.7314 92.9551 40.7831C92.8195 41.0301 92.6253 41.225 92.3965 41.3436C92.3716 41.357 92.3464 41.3696 92.3209 41.3814C92.1755 41.4479 92.0245 41.4961 91.8704 41.5252C91.7279 41.5531 91.5756 41.5688 91.4135 41.5723C91.39 41.5729 91.3664 41.5731 91.3429 41.5732H89.5371V35.1013H89.7665V41.3035H91.3429C91.4958 41.3044 91.6485 41.2914 91.7997 41.2647C91.9619 41.2349 92.1088 41.188 92.2404 41.1238C92.3391 41.0764 92.4328 41.0158 92.5198 40.9432C92.7713 40.7316 92.912 40.3939 92.9419 39.9302C92.946 39.8656 92.948 39.8009 92.948 39.7361C92.9489 39.5882 92.9369 39.4405 92.9121 39.2955C92.8535 38.9664 92.7227 38.7165 92.5198 38.5458C92.2929 38.3549 91.9985 38.2398 91.6365 38.2007C91.5389 38.1904 91.4409 38.1854 91.3429 38.1856H89.6661ZM109.68 41.5732H109.45V35.3626L107.831 35.371C107.305 35.3739 106.926 35.482 106.691 35.6954C106.571 35.8078 106.48 35.9579 106.428 36.1284C106.37 36.3103 106.34 36.5297 106.34 36.7867C106.34 36.9193 106.349 37.0518 106.368 37.1824C106.39 37.323 106.424 37.4476 106.471 37.5563C106.525 37.6828 106.602 37.7935 106.697 37.8801C106.79 37.9622 106.895 38.0261 107.006 38.0693C107.223 38.1581 107.498 38.2025 107.831 38.2025H109.565V38.472H107.831C107.703 38.4725 107.575 38.4655 107.447 38.4509C107.319 38.4358 107.201 38.4125 107.092 38.381C107.012 38.3582 106.933 38.3288 106.856 38.293C106.744 38.2412 106.638 38.1703 106.544 38.0825C106.443 37.9882 106.358 37.8724 106.294 37.741C106.19 37.5296 106.131 37.2679 106.115 36.9558C106.112 36.8995 106.111 36.8431 106.111 36.7867C106.111 36.6551 106.118 36.5236 106.134 36.3933C106.152 36.2523 106.181 36.1235 106.22 36.007C106.24 35.9454 106.264 35.8856 106.292 35.8282C106.391 35.6251 106.539 35.4602 106.716 35.3532C106.761 35.3252 106.807 35.3002 106.854 35.2784C106.964 35.2286 107.077 35.1908 107.192 35.1654C107.379 35.1227 107.592 35.1013 107.831 35.1013H109.68V41.5732ZM159 41.5732H158.771V35.3626L157.151 35.371C156.626 35.3739 156.246 35.482 156.012 35.6954C155.891 35.8078 155.8 35.9579 155.749 36.1284C155.69 36.3103 155.661 36.5297 155.661 36.7867C155.66 36.9193 155.669 37.0518 155.689 37.1824C155.71 37.323 155.745 37.4476 155.792 37.5563C155.845 37.6828 155.922 37.7935 156.017 37.8801C156.111 37.9622 156.215 38.0261 156.326 38.0693C156.543 38.1581 156.818 38.2025 157.151 38.2025H158.885V38.472H157.151C157.023 38.4725 156.895 38.4655 156.768 38.4509C156.64 38.4358 156.521 38.4125 156.413 38.381C156.332 38.3582 156.254 38.3288 156.177 38.293C156.064 38.2412 155.959 38.1703 155.864 38.0825C155.763 37.9882 155.679 37.8724 155.614 37.741C155.511 37.5296 155.451 37.2679 155.436 36.9558C155.433 36.8995 155.432 36.8431 155.432 36.7867C155.431 36.6551 155.439 36.5236 155.455 36.3933C155.473 36.2523 155.501 36.1235 155.54 36.007C155.561 35.9454 155.585 35.8856 155.612 35.8282C155.712 35.6251 155.859 35.4601 156.036 35.3532C156.081 35.3252 156.128 35.3002 156.175 35.2784C156.285 35.2286 156.398 35.1908 156.513 35.1654C156.7 35.1227 156.913 35.1013 157.151 35.1013H159V41.5732ZM114.724 41.5732H114.495V35.1013H114.724V38.2025H115.398L117.576 35.1013H117.877L115.699 38.2025L117.963 41.5732H117.669L115.591 38.472H114.724V41.5732ZM48.2707 36.9889H48.027C47.953 36.4805 47.7565 36.0669 47.4377 35.7481C47.1188 35.4293 46.742 35.2699 46.3073 35.2699C45.9132 35.2699 45.5591 35.404 45.2451 35.6723C44.9971 35.8863 44.7895 36.1582 44.6352 36.4711C44.5862 36.5686 44.5416 36.6691 44.5016 36.772C44.3768 37.096 44.2949 37.4405 44.2586 37.7936C44.2388 37.9795 44.229 38.1667 44.2293 38.3541C44.2279 38.6705 44.2574 38.986 44.3174 39.2944C44.3592 39.5066 44.4178 39.7137 44.4926 39.913C44.6682 40.3793 44.9124 40.7501 45.2253 41.0254C45.5382 41.3006 45.8989 41.4383 46.3073 41.4383C46.5144 41.4399 46.7201 41.4004 46.9159 41.3213C46.9847 41.293 47.0518 41.2597 47.117 41.2214C47.3611 41.0787 47.572 40.8683 47.7315 40.6083C47.8752 40.3743 47.974 40.1064 48.0211 39.8231C48.029 39.7775 48.0357 39.7316 48.0413 39.6856H48.285C48.2325 40.0929 48.113 40.4482 47.9267 40.7515C47.7457 41.0496 47.5059 41.2917 47.2281 41.4572C46.9615 41.6153 46.6681 41.7006 46.3697 41.707C46.3489 41.7076 46.3281 41.708 46.3073 41.7079C45.8815 41.7148 45.4651 41.5604 45.1196 41.2676C44.8349 41.0248 44.5979 40.7129 44.4245 40.3531C44.3791 40.2606 44.3373 40.1658 44.2992 40.0689C44.0998 39.5633 44.0001 38.9917 44.0001 38.3541C43.9985 38.0153 44.03 37.6774 44.0941 37.3471C44.1416 37.1058 44.2097 36.8707 44.2974 36.6455C44.4021 36.373 44.5385 36.119 44.7028 35.8907C44.8249 35.7225 44.9636 35.5721 45.116 35.4427C45.4622 35.1482 45.8801 34.993 46.3073 35.0002C46.5496 34.9981 46.7901 35.048 47.0172 35.1472C47.085 35.1773 47.1512 35.2119 47.2156 35.2509C47.4901 35.4168 47.7276 35.6564 47.9088 35.9504C48.0797 36.227 48.1973 36.5441 48.2535 36.8796C48.2599 36.9159 48.2656 36.9524 48.2707 36.9889ZM55.2822 44H55.0529V35.1013H55.2822V36.753H55.3109C55.4111 36.3935 55.5509 36.0831 55.7301 35.8219C55.9092 35.5606 56.1211 35.3584 56.366 35.2151C56.5922 35.084 56.8398 35.0114 57.0919 35.0021C57.1192 35.0009 57.1466 35.0002 57.1739 35.0002C57.3926 34.9978 57.6101 35.0399 57.8167 35.1245C57.9916 35.198 58.1551 35.3048 58.3007 35.4405C58.6171 35.7341 58.8619 36.1337 59.0351 36.6393C59.2083 37.1449 59.2949 37.7165 59.2949 38.3541C59.2962 38.6751 59.2715 38.9956 59.2211 39.3111C59.1796 39.5689 59.1167 39.8214 59.0333 40.0648C58.9518 40.3053 58.846 40.5334 58.718 40.7442C58.5984 40.9402 58.4561 41.1156 58.2953 41.2655C57.99 41.5489 57.613 41.7044 57.224 41.7072C57.2073 41.7077 57.1906 41.7079 57.1739 41.7079C56.9552 41.7098 56.738 41.6658 56.5324 41.5781C56.4764 41.5538 56.4214 41.5262 56.3678 41.4952C56.1188 41.3506 55.8999 41.1435 55.7264 40.8884C55.587 40.6849 55.4738 40.4582 55.3906 40.2158C55.3608 40.1303 55.3342 40.0433 55.3109 39.9551H55.2822V44ZM103.933 37.3091V36.9215C103.934 36.7325 103.911 36.5443 103.862 36.364C103.794 36.1168 103.671 35.8955 103.506 35.7228C103.318 35.5259 103.09 35.39 102.844 35.3284C102.689 35.2882 102.53 35.2686 102.371 35.2699C101.984 35.2699 101.646 35.3703 101.357 35.5712C101.076 35.7599 100.862 36.0591 100.751 36.416L100.536 36.3149C100.62 36.0483 100.757 35.8088 100.934 35.6154C101.1 35.4344 101.293 35.2907 101.503 35.1915C101.526 35.1806 101.549 35.1702 101.572 35.1603C101.777 35.0722 101.993 35.0201 102.212 35.0058C102.265 35.0021 102.318 35.0002 102.371 35.0002C102.504 34.9996 102.637 35.0118 102.768 35.0365C102.888 35.0594 103.007 35.0959 103.121 35.1456C103.254 35.2028 103.38 35.2788 103.497 35.3717C103.564 35.4252 103.627 35.4848 103.685 35.5501C103.841 35.7228 103.959 35.9258 104.04 36.159C104.121 36.3921 104.162 36.6463 104.162 36.9215V41.5732H103.933V40.2585H103.904C103.794 40.5421 103.643 40.8009 103.458 41.0233C103.275 41.241 103.065 41.4095 102.827 41.5289C102.59 41.6483 102.332 41.7079 102.055 41.7079C101.829 41.7098 101.605 41.6645 101.393 41.5742C101.335 41.5492 101.278 41.5208 101.222 41.4889C100.971 41.3465 100.759 41.1247 100.61 40.8484C100.511 40.6664 100.444 40.4636 100.411 40.2514C100.389 40.1093 100.378 39.9649 100.379 39.8204C100.378 39.6487 100.398 39.4778 100.438 39.3128C100.447 39.2758 100.457 39.2393 100.468 39.2031C100.511 39.0669 100.575 38.9409 100.656 38.8312C100.695 38.7769 100.738 38.7259 100.783 38.6785C100.9 38.5563 101.054 38.4476 101.244 38.3524C101.3 38.3241 101.358 38.298 101.416 38.274C101.613 38.1924 101.85 38.1248 102.127 38.0714C102.236 38.0504 102.346 38.0322 102.457 38.017C102.71 37.9833 102.949 37.944 103.173 37.8991C103.252 37.8836 103.33 37.8637 103.407 37.8394C103.528 37.8007 103.633 37.7532 103.721 37.6968C103.862 37.6069 103.933 37.4777 103.933 37.3091ZM141.437 37.3091V36.9215C141.439 36.7325 141.415 36.5443 141.367 36.364C141.299 36.1168 141.176 35.8955 141.011 35.7228C140.823 35.5259 140.595 35.39 140.348 35.3284C140.193 35.2882 140.034 35.2686 139.875 35.2699C139.488 35.2699 139.15 35.3703 138.861 35.5712C138.581 35.7599 138.366 36.0591 138.256 36.416L138.041 36.3149C138.125 36.0483 138.261 35.8088 138.439 35.6154C138.605 35.4344 138.798 35.2907 139.008 35.1915C139.031 35.1806 139.053 35.1702 139.076 35.1603C139.282 35.0722 139.498 35.0201 139.716 35.0058C139.769 35.0021 139.822 35.0002 139.875 35.0002C140.008 34.9996 140.141 35.0118 140.272 35.0365C140.393 35.0594 140.511 35.0959 140.626 35.1456C140.758 35.2028 140.885 35.2788 141.002 35.3717C141.068 35.4252 141.131 35.4848 141.19 35.5501C141.345 35.7228 141.464 35.9258 141.545 36.159C141.626 36.3921 141.667 36.6463 141.667 36.9215V41.5732H141.437V40.2585H141.409C141.299 40.5421 141.148 40.8009 140.963 41.0233C140.78 41.241 140.57 41.4095 140.332 41.5289C140.094 41.6483 139.837 41.7079 139.56 41.7079C139.334 41.7098 139.11 41.6645 138.897 41.5742C138.839 41.5492 138.782 41.5208 138.727 41.4889C138.476 41.3465 138.264 41.1247 138.114 40.8484C138.016 40.6664 137.949 40.4636 137.916 40.2514C137.894 40.1093 137.883 39.9649 137.883 39.8204C137.882 39.6487 137.902 39.4778 137.942 39.3128C137.951 39.2758 137.961 39.2393 137.973 39.2031C138.016 39.0669 138.079 38.9409 138.16 38.8312C138.2 38.7769 138.242 38.7259 138.288 38.6785C138.405 38.5563 138.558 38.4476 138.748 38.3524C138.805 38.3241 138.862 38.298 138.92 38.274C139.117 38.1924 139.354 38.1248 139.631 38.0714C139.741 38.0504 139.851 38.0322 139.961 38.017C140.214 37.9833 140.453 37.944 140.678 37.8991C140.756 37.8836 140.834 37.8637 140.912 37.8394C141.033 37.8007 141.138 37.7532 141.226 37.6968C141.367 37.6069 141.437 37.4777 141.437 37.3091ZM51.4092 35.371H49.5318V35.1013H53.4872V35.371H51.6385V41.5732H51.4092V35.371ZM74.1993 35.371H72.3219V35.1013H76.2772V35.371H74.4286V41.5732H74.1993V35.371ZM61.699 41.2676C62.0364 41.5587 62.4449 41.7132 62.8634 41.7079C63.2818 41.7132 63.6903 41.5587 64.0277 41.2676C64.1844 41.1337 64.3265 40.9776 64.4508 40.8029C64.6086 40.579 64.7405 40.3315 64.8428 40.0668C64.9327 39.8374 65.0021 39.5977 65.05 39.3515C65.1127 39.0242 65.1435 38.6896 65.142 38.3541C65.1422 38.1756 65.1338 37.9972 65.1169 37.8198C65.0798 37.4127 64.9866 37.0154 64.841 36.6434C64.7978 36.5343 64.7501 36.4277 64.6979 36.3241C64.5272 35.9796 64.2985 35.6797 64.0259 35.4427C63.6897 35.1502 63.2815 34.9949 62.8634 35.0002C62.4449 34.995 62.0364 35.1495 61.699 35.4405C61.5451 35.5721 61.4052 35.7249 61.2824 35.8958C61.1217 36.1214 60.9877 36.3715 60.8839 36.6393C60.7891 36.8808 60.7171 37.1338 60.6692 37.3937C60.6116 37.7093 60.5833 38.0313 60.5847 38.3541C60.5845 38.5327 60.5928 38.7111 60.6096 38.8886C60.6466 39.2961 60.7392 39.694 60.8839 40.0668C60.9268 40.1762 60.9744 40.2831 61.0264 40.3869C61.1965 40.7319 61.4255 41.0318 61.699 41.2676ZM120.066 41.2676C120.403 41.5587 120.812 41.7132 121.23 41.7079C121.649 41.7132 122.057 41.5587 122.395 41.2676C122.552 41.1337 122.694 40.9776 122.818 40.8029C122.976 40.579 123.108 40.3315 123.21 40.0668C123.3 39.8374 123.369 39.5977 123.417 39.3515C123.48 39.0242 123.511 38.6896 123.509 38.3541C123.509 38.1756 123.501 37.9972 123.484 37.8198C123.447 37.4127 123.354 37.0154 123.208 36.6434C123.165 36.5343 123.117 36.4277 123.065 36.3241C122.894 35.9796 122.666 35.6797 122.393 35.4427C122.057 35.1502 121.649 34.9949 121.23 35.0002C120.812 34.995 120.403 35.1495 120.066 35.4405C119.912 35.5721 119.772 35.7249 119.649 35.8958C119.489 36.1214 119.355 36.3715 119.251 36.6393C119.156 36.8808 119.084 37.1338 119.036 37.3937C118.979 37.7093 118.95 38.0313 118.952 38.3541C118.951 38.5327 118.96 38.7111 118.977 38.8886C119.014 39.2961 119.106 39.694 119.251 40.0668C119.294 40.1762 119.341 40.2831 119.394 40.3869C119.564 40.7319 119.793 41.0318 120.066 41.2676ZM62.8634 41.4383C63.241 41.4428 63.6094 41.3006 63.9113 41.0338C64.1483 40.8249 64.3475 40.5624 64.4971 40.2618C64.5514 40.1546 64.6004 40.0437 64.644 39.9299C64.7698 39.5981 64.8515 39.2455 64.8864 38.8846C64.9042 38.7085 64.9129 38.5314 64.9127 38.3541C64.9139 38.0582 64.8884 37.763 64.8364 37.4735C64.793 37.2349 64.7279 37.0026 64.6422 36.7804C64.5523 36.5449 64.4375 36.3235 64.3006 36.1216C64.1866 35.9546 64.0552 35.8051 63.9095 35.6765C63.6014 35.4055 63.2527 35.2699 62.8634 35.2699C62.4764 35.2699 62.1283 35.4055 61.8189 35.6765C61.5819 35.8864 61.3824 36.1492 61.2318 36.4499C61.1775 36.5567 61.1283 36.6671 61.0844 36.7804C60.9578 37.1114 60.8755 37.4633 60.8404 37.8238C60.8225 37.9998 60.8137 38.1769 60.814 38.3541C60.8126 38.6585 60.8396 38.9622 60.8944 39.2597C60.9373 39.4902 61.0005 39.7147 61.0827 39.9299C61.1719 40.166 61.2864 40.3878 61.4233 40.5898C61.5374 40.7568 61.6692 40.906 61.8154 41.0338C62.1173 41.3006 62.4857 41.4428 62.8634 41.4383ZM121.23 41.4383C121.608 41.4428 121.976 41.3006 122.278 41.0338C122.515 40.8249 122.715 40.5624 122.864 40.2618C122.918 40.1546 122.968 40.0437 123.011 39.9299C123.137 39.5981 123.219 39.2455 123.254 38.8846C123.271 38.7085 123.28 38.5314 123.28 38.3541C123.281 38.0582 123.255 37.763 123.203 37.4735C123.16 37.2349 123.095 37.0026 123.009 36.7804C122.919 36.5449 122.805 36.3235 122.668 36.1216C122.554 35.9546 122.422 35.8051 122.277 35.6765C121.968 35.4055 121.62 35.2699 121.23 35.2699C120.843 35.2699 120.495 35.4055 120.186 35.6765C119.949 35.8864 119.749 36.1492 119.599 36.4499C119.545 36.5567 119.495 36.6671 119.452 36.7804C119.325 37.1114 119.243 37.4633 119.207 37.8238C119.19 37.9998 119.181 38.1769 119.181 38.3541C119.18 38.6585 119.207 38.9622 119.261 39.2597C119.304 39.4902 119.367 39.7147 119.45 39.9299C119.539 40.166 119.653 40.3878 119.79 40.5898C119.904 40.7568 120.036 40.906 120.182 41.0338C120.484 41.3006 120.853 41.4428 121.23 41.4383ZM55.2822 38.3541C55.2811 38.6452 55.3023 38.9358 55.3455 39.2225C55.382 39.4634 55.4382 39.6996 55.5132 39.9279C55.5829 40.1418 55.6732 40.3455 55.7825 40.5351C55.8904 40.7216 56.0205 40.8889 56.1689 41.0318C56.4426 41.2941 56.7847 41.4376 57.1378 41.4379C57.1498 41.4381 57.1619 41.4383 57.1739 41.4383C57.3795 41.4407 57.5837 41.3974 57.7756 41.3106C57.9215 41.2428 58.0576 41.1487 58.1789 41.0318C58.3763 40.8404 58.5417 40.6073 58.6666 40.3447C58.7311 40.2107 58.7873 40.0714 58.8345 39.9279C58.9334 39.6248 59.0002 39.3085 59.0331 38.9863C59.0552 38.7765 59.066 38.5654 59.0656 38.3541C59.0667 38.063 59.0456 37.7724 59.0028 37.4857C58.9665 37.2449 58.9107 37.0088 58.8363 36.7804C58.7672 36.5665 58.6773 36.3627 58.5683 36.1731C58.4607 35.9866 58.3307 35.8193 58.1824 35.6765C57.9138 35.4193 57.5792 35.2763 57.2328 35.271C57.2132 35.2703 57.1935 35.2699 57.1739 35.2699C56.9729 35.2676 56.7733 35.3085 56.5848 35.3906C56.4328 35.4586 56.2911 35.5552 56.1653 35.6765C55.9659 35.8699 55.7994 36.1058 55.6745 36.3718C55.6119 36.5032 55.5574 36.6398 55.5115 36.7804C55.4133 37.0836 55.3471 37.3999 55.3144 37.722C55.2925 37.9317 55.2818 38.1428 55.2822 38.3541ZM94.7967 35.1013H95.0259V41.5732H94.7967V35.1013ZM98.4725 35.1013H98.7019V41.5732H98.4725V35.1013ZM143.644 35.1013H143.874V41.5732H143.644V35.1013ZM147.32 35.1013H147.549V41.5732H147.32V35.1013ZM103.933 38.8091V37.8317C103.895 37.8645 103.856 37.8939 103.815 37.9197C103.774 37.945 103.733 37.9676 103.691 37.9876C103.641 38.011 103.591 38.0323 103.54 38.0513C103.485 38.0721 103.429 38.0909 103.372 38.1077C103.295 38.1303 103.218 38.1502 103.14 38.1673C103.089 38.1786 103.038 38.1889 102.987 38.1982C102.915 38.2112 102.844 38.2235 102.772 38.2351C102.696 38.2474 102.619 38.259 102.543 38.2699C102.398 38.2892 102.255 38.3137 102.112 38.3433C101.829 38.4027 101.592 38.4776 101.402 38.5679C101.395 38.571 101.388 38.5742 101.382 38.5774C101.295 38.6191 101.211 38.6682 101.131 38.7243C101.046 38.7842 100.973 38.8489 100.911 38.9185C100.863 38.9718 100.82 39.0312 100.783 39.0956C100.686 39.2709 100.627 39.4724 100.613 39.6814C100.61 39.7276 100.608 39.774 100.608 39.8204C100.608 40.3091 100.747 40.701 101.025 40.9959C101.273 41.2587 101.59 41.413 101.924 41.433C101.967 41.4366 102.011 41.4383 102.055 41.4383C102.393 41.4422 102.724 41.327 103.005 41.1076C103.244 40.9202 103.444 40.6717 103.591 40.3806C103.623 40.3168 103.654 40.2515 103.682 40.1848C103.789 39.9279 103.862 39.6531 103.897 39.37C103.921 39.1844 103.933 38.9969 103.933 38.8091ZM141.437 38.8091V37.8317C141.4 37.8645 141.36 37.8939 141.319 37.9197C141.279 37.945 141.238 37.9676 141.195 37.9876C141.146 38.011 141.096 38.0323 141.045 38.0513C140.989 38.0721 140.933 38.0909 140.877 38.1077C140.8 38.1303 140.722 38.1502 140.644 38.1673C140.594 38.1786 140.543 38.1889 140.491 38.1982C140.42 38.2112 140.348 38.2235 140.276 38.2351C140.2 38.2474 140.124 38.259 140.047 38.2699C139.903 38.2892 139.759 38.3137 139.617 38.3433C139.333 38.4027 139.097 38.4776 138.906 38.5679C138.899 38.571 138.893 38.5742 138.886 38.5774C138.8 38.6191 138.716 38.6682 138.635 38.7243C138.551 38.7842 138.477 38.8489 138.415 38.9185C138.367 38.9718 138.325 39.0312 138.288 39.0956C138.19 39.2709 138.132 39.4724 138.118 39.6814C138.114 39.7276 138.112 39.774 138.112 39.8204C138.112 40.3091 138.252 40.701 138.53 40.9959C138.778 41.2587 139.095 41.413 139.428 41.433C139.472 41.4366 139.516 41.4383 139.56 41.4383C139.897 41.4422 140.228 41.327 140.509 41.1076C140.749 40.9202 140.949 40.6717 141.095 40.3806C141.128 40.3168 141.158 40.2515 141.186 40.1848C141.294 39.9279 141.366 39.6531 141.402 39.37C141.426 39.1844 141.438 38.9969 141.437 38.8091ZM94.9471 38.2025H98.5801V38.472H94.9471V38.2025ZM143.795 38.2025H147.428V38.472H143.795V38.2025ZM105.932 41.5732H105.667L107.293 38.3541H107.558L105.932 41.5732ZM155.252 41.5732H154.987L156.614 38.3541H156.879L155.252 41.5732Z" stroke="white" stroke-width="0.944882" stroke-linecap="round"/>
<path fill-rule="evenodd" clip-rule="evenodd" d="M29.4971 11.8522C29.494 11.8536 29.4908 11.855 29.4876 11.8564C29.4872 11.8583 29.4869 11.8602 29.4864 11.8621L29.4624 11.8319H29.4859C28.2765 17.5839 27.9675 23.4579 28.3408 29.4669C24.1922 33.0222 19.832 36.872 14.7578 40C20.3137 30.2151 23.4239 19.5656 29.4745 11.8319H29.4683C24.1509 14.1284 19.4804 17.7143 14.755 21.2469C10.0223 17.706 5.34492 14.1106 0.0165752 11.8443C0.0138367 11.8448 0.0111342 11.8452 0.00839569 11.8456C6.06878 19.548 9.17948 30.2071 14.7399 40C9.66574 36.872 5.30557 33.0222 1.15695 29.4669C1.53061 23.4513 1.22065 17.5709 0.00789123 11.8457C0.00526082 11.8462 0.00263041 11.8466 0 11.847C4.49731 7.95272 9.17465 3.54241 14.7386 0C20.3047 3.53803 24.9843 7.94542 29.4832 11.8386C29.4363 11.8308 29.3894 11.8236 29.3425 11.816L29.4139 11.8389C29.4378 11.8428 29.4617 11.8464 29.4856 11.8504C29.4871 11.8485 29.4886 11.8466 29.49 11.8447C29.4896 11.8468 29.4892 11.8488 29.4887 11.8509C29.4916 11.8514 29.4943 11.8518 29.4971 11.8522Z" fill="white"/>
<path fill-rule="evenodd" clip-rule="evenodd" d="M63.2788 28.1824V24.0115H62.5581C62.2506 25.2677 61.6911 26.4459 60.9146 27.4723C59.4177 29.4274 57.268 30.5065 55.161 30.5065C54.231 30.5085 53.3119 30.302 52.4695 29.9016C51.6271 29.5012 50.8821 28.9169 50.2876 28.1903C49.0969 26.7748 48.2568 24.6854 48.0595 21.8532C48.0295 21.4165 48.0147 20.9788 48.0151 20.541C48.006 19.2805 48.1287 18.0225 48.3813 16.7883C49.4347 11.8307 52.5957 9.62107 55.6939 9.62107C56.7177 9.63214 57.7255 9.88106 58.64 10.3488C59.5546 10.8165 60.3516 11.4906 60.9701 12.3194C61.7808 13.3811 62.3564 14.7345 62.5581 16.3385H63.2788V11.9452C61.994 10.6483 60.4448 9.65344 58.7404 9.03071C57.3915 8.53617 55.9683 8.28351 54.5343 8.28401C51.5648 8.26781 48.7049 9.42233 46.5564 11.5046C44.4079 13.5869 43.1384 16.4345 43.015 19.4483C43.005 19.6532 43 19.8584 43 20.0635C43 26.6224 48.0779 31.8436 54.5343 31.8436C58.0447 31.8436 61.1479 30.3152 63.2788 28.1824Z" fill="white"/>
<path fill-rule="evenodd" clip-rule="evenodd" d="M66.5698 9.04755V9.1751C66.586 9.27995 66.6014 9.38494 66.6159 9.49003C66.6921 10.0527 66.7198 10.5201 66.7254 11.782C66.7262 11.985 66.7266 12.188 66.7265 12.391V27.9909C66.7267 28.1729 66.7265 28.3548 66.726 28.5367C66.7198 29.9844 66.6876 30.4099 66.5893 31.0765C66.5829 31.12 66.5764 31.1634 66.5698 31.2069V31.3338H71.6477V31.2069C71.6237 31.1022 71.6011 30.9972 71.5799 30.8919C71.4677 30.327 71.4355 29.8585 71.4293 28.5869C71.4285 28.3883 71.4281 28.1896 71.4282 27.9909V10.3852H80.2044V27.9909C80.2044 28.1729 80.204 28.3548 80.2033 28.5367C80.1966 30.0764 80.1544 30.4602 79.9849 31.2069V31.3338H85.0622V31.2069C85.0462 31.102 85.0311 30.997 85.0167 30.8919C84.9406 30.3292 84.9128 29.8619 84.9072 28.5999C84.9062 28.3969 84.9056 28.1939 84.9055 27.9909V12.391C84.9056 12.2091 84.9059 12.0272 84.9067 11.8453C84.9122 10.3976 84.945 9.97146 85.0428 9.30548C85.0492 9.262 85.0557 9.21854 85.0622 9.1751V9.04755H66.5698Z" fill="white"/>
<path fill-rule="evenodd" clip-rule="evenodd" d="M94.8733 9.04758L87.6329 27.991C87.5265 28.2712 87.4189 28.551 87.31 28.8302C86.7666 30.2248 86.5122 30.7633 86.3833 31.0173C86.3504 31.0804 86.3176 31.1436 86.2849 31.2069V31.3339H88.2596V31.2069C88.2596 31.0156 88.1029 30.6335 89.1058 27.991L89.8893 25.8581H99.5433L100.264 27.991C101.114 30.463 100.95 30.9569 100.925 31.1668C100.923 31.1801 100.923 31.1935 100.922 31.2069V31.3339H106.501V31.2069C106.408 31.0156 106.188 30.6335 105.279 27.991L98.352 8.1564C98.121 8.33866 97.8647 8.48512 97.5914 8.59099C96.8807 8.87996 95.9945 9.01033 95.2283 9.04081C95.11 9.04541 94.9916 9.04767 94.8733 9.04758ZM90.391 24.5211L94.9355 12.4227L99.0732 24.5211H90.391Z" fill="white"/>
<path fill-rule="evenodd" clip-rule="evenodd" d="M115.433 9.04755H107.315V9.1751C107.331 9.27995 107.346 9.38494 107.361 9.49003C107.437 10.0527 107.465 10.5201 107.471 11.782C107.471 11.985 107.472 12.188 107.472 12.391V27.9909C107.472 28.1729 107.472 28.3548 107.471 28.5367C107.465 29.9844 107.433 30.4099 107.334 31.0765C107.328 31.12 107.322 31.1634 107.315 31.2069V31.3338H112.33V31.2069C112.314 31.102 112.299 30.997 112.284 30.8919C112.208 30.3292 112.181 29.8619 112.174 28.5999C112.174 28.3969 112.173 28.1939 112.173 27.9909V10.3852H114.399C115.179 10.3705 115.955 10.5124 116.682 10.8028C118.529 11.5806 119.528 13.4233 119.569 16.1612C119.57 16.2203 119.57 16.2793 119.57 16.3384C119.582 17.2294 119.438 18.1153 119.146 18.9555C118.374 21.0918 116.606 22.3419 114.328 22.4982C114.164 22.5095 113.999 22.5152 113.835 22.5152H113.427V23.4701C113.714 23.5036 114.001 23.5328 114.289 23.5576C114.576 23.5827 114.863 23.5961 115.151 23.5977C117.288 23.6395 119.39 23.0458 121.2 21.8898C122.928 20.7136 124.116 18.9335 124.258 16.5653C124.267 16.405 124.272 16.2445 124.272 16.0839C124.31 14.5629 123.816 13.0774 122.877 11.8921C121.48 10.1724 119.096 9.16776 116.007 9.05771C115.816 9.05092 115.625 9.04753 115.433 9.04755Z" fill="white"/>
<path fill-rule="evenodd" clip-rule="evenodd" d="M125.369 9.04755V10.6081H125.494C125.592 10.5851 125.69 10.5633 125.788 10.5426C126.426 10.4094 126.897 10.3852 128.347 10.3852H130.227V27.9909C130.227 29.933 130.196 30.2835 130.039 31.0477L130.008 31.2069V31.3338H135.148V31.2069L135.117 31.0477C134.978 30.3687 134.937 30.0165 134.93 28.5864C134.929 28.3879 134.929 28.1894 134.929 27.9909V10.3852H136.809C138.358 10.3852 138.79 10.4128 139.502 10.5714C139.555 10.5833 139.609 10.5956 139.662 10.6081H139.787V9.04755H125.369Z" fill="white"/>
<path fill-rule="evenodd" clip-rule="evenodd" d="M147.874 9.04758L140.633 27.991C140.527 28.2712 140.42 28.551 140.311 28.8302C139.767 30.2248 139.513 30.7633 139.384 31.0173C139.351 31.0804 139.318 31.1436 139.286 31.2069V31.3339H141.26V31.2069C141.26 31.0156 141.103 30.6335 142.107 27.991L142.89 25.8581H152.544L153.264 27.991C154.115 30.463 153.951 30.9569 153.926 31.1668C153.924 31.1801 153.923 31.1935 153.923 31.2069V31.3339H159.502V31.2069C159.408 31.0156 159.188 30.6335 158.279 27.991L151.352 8.1564C151.122 8.33861 150.865 8.48507 150.592 8.59099C149.881 8.87996 148.995 9.01033 148.229 9.04081C148.11 9.04541 147.992 9.04767 147.874 9.04758ZM143.391 24.5211L147.936 12.4227L152.074 24.5211H143.391Z" fill="white"/>
</svg>
